<?xml version="1.0" standalone="no"?>
<!DOCTYPE svg PUBLIC "-//W3C//DTD SVG 20010904//EN"
 "http://www.w3.org/TR/2001/REC-SVG-20010904/DTD/svg10.dtd">
<svg version="1.0" xmlns="http://www.w3.org/2000/svg"
 width="2048.000000pt" height="2048.000000pt" viewBox="0 0 2048.000000 2048.000000"
 preserveAspectRatio="xMidYMid meet">

<g transform="translate(0.000000,2048.000000) scale(0.100000,-0.100000)"
fill="#000000" stroke="none">
<path d="M9840 17193 c-380 -18 -1001 -117 -1373 -218 -728 -199 -1411 -507
-2021 -913 -440 -292 -765 -561 -1136 -938 -300 -306 -496 -538 -726 -859
-516 -722 -875 -1507 -1103 -2410 -75 -297 -158 -835 -181 -1165 -13 -187 -13
-746 0 -920 65 -884 329 -1847 716 -2610 443 -875 1066 -1653 1834 -2290 470
-390 1040 -741 1610 -993 983 -433 2013 -632 3053 -589 408 17 685 50 1077
128 1208 241 2347 813 3275 1643 369 330 748 748 1016 1122 239 333 417 626
589 969 192 381 318 698 435 1090 115 385 192 743 244 1135 42 315 46 387 45
880 0 430 -2 499 -22 660 -81 667 -201 1180 -401 1715 -114 307 -168 432 -307
710 -290 576 -630 1075 -1060 1550 -136 150 -440 453 -579 576 -493 439 -1091
829 -1688 1103 -236 108 -296 134 -444 190 -636 242 -1280 380 -2013 431 -130
9 -676 11 -840 3z m945 -207 c888 -79 1690 -303 2455 -686 643 -322 1189 -714
1714 -1230 661 -650 1142 -1351 1504 -2191 277 -644 433 -1258 528 -2089 21
-185 30 -739 15 -956 -13 -186 -45 -440 -91 -721 -146 -897 -516 -1823 -1034
-2593 -370 -550 -861 -1089 -1381 -1515 -350 -287 -767 -563 -1150 -761 -653
-337 -1289 -554 -1943 -663 -424 -71 -629 -91 -1032 -98 -465 -8 -777 16
-1262 97 -659 111 -1340 340 -1938 652 -1137 594 -2076 1487 -2755 2618 -104
174 -317 598 -405 805 -344 816 -522 1699 -522 2590 0 326 9 480 48 795 78
629 227 1194 472 1786 245 594 583 1157 1010 1684 451 556 1059 1094 1657
1467 980 612 2033 947 3215 1022 189 12 692 5 895 -13z"/>
<path d="M4289 10493 c-13 -16 -12 -17 4 -4 9 7 17 15 17 17 0 8 -8 3 -21 -13z"/>
<path d="M4428 10413 c-25 -30 -82 -116 -71 -110 11 7 96 127 90 127 -2 0 -11
-8 -19 -17z"/>
<path d="M4353 10174 c15 -23 16 -55 2 -60 -19 -8 -26 -31 -9 -31 8 0 12 2 9
5 -2 2 3 12 12 20 14 15 18 13 40 -13 l25 -30 -17 30 c-9 17 -28 44 -43 60
-15 17 -23 25 -19 19z"/>
<path d="M4267 10008 c14 -21 27 -38 28 -38 9 0 -3 32 -18 48 -9 10 -15 21
-12 24 3 2 -1 5 -9 5 -10 0 -7 -11 11 -39z"/>
<path d="M4650 9697 c0 -5 5 -17 10 -28 8 -15 7 -23 -4 -35 -8 -8 -13 -21 -10
-29 4 -8 2 -15 -4 -15 -5 0 -13 -15 -16 -34 -5 -27 -10 -33 -26 -29 -16 4 -18
1 -15 -18 4 -23 4 -23 -10 -5 -8 11 -15 16 -15 10 1 -13 79 -161 79 -149 0 6
-6 21 -14 35 -19 33 -20 66 -2 54 7 -5 4 -1 -6 9 -16 14 -17 17 -3 17 9 0 16
6 16 13 0 7 14 25 31 40 18 16 29 33 26 41 -3 8 0 16 8 18 10 2 6 17 -15 58
-16 30 -29 51 -30 47z"/>
<path d="M4796 9407 c3 -10 9 -15 12 -12 3 3 0 11 -7 18 -10 9 -11 8 -5 -6z"/>
<path d="M4810 9371 c0 -6 4 -13 10 -16 6 -3 7 1 4 9 -7 18 -14 21 -14 7z"/>
<path d="M4831 9335 c0 -5 6 -21 14 -35 8 -14 14 -20 14 -15 0 6 -6 21 -14 35
-8 14 -14 21 -14 15z"/>
<path d="M8749 8953 c-13 -16 -12 -17 4 -4 9 7 17 15 17 17 0 8 -8 3 -21 -13z"/>
<path d="M5110 8803 c0 -6 8 -17 18 -24 16 -13 16 -13 2 6 -8 11 -16 22 -17
24 -2 2 -3 0 -3 -6z"/>
<path d="M8158 8773 c6 -2 18 -2 25 0 6 3 1 5 -13 5 -14 0 -19 -2 -12 -5z"/>
<path d="M8238 8773 c12 -2 30 -2 40 0 9 3 -1 5 -23 4 -22 0 -30 -2 -17 -4z"/>
<path d="M8073 8763 c9 -2 23 -2 30 0 6 3 -1 5 -18 5 -16 0 -22 -2 -12 -5z"/>
<path d="M5149 8743 c6 -10 22 -31 36 -48 20 -23 19 -18 -6 18 -32 46 -49 63
-30 30z"/>
<path d="M7466 8560 c-31 -34 -60 -70 -66 -80 -18 -33 -4 -22 25 21 23 33 30
37 37 25 5 -9 14 -16 19 -16 6 0 3 7 -6 16 -15 16 -14 20 21 55 21 22 35 39
32 39 -3 0 -31 -27 -62 -60z"/>
<path d="M5060 8592 c6 -13 14 -21 18 -18 3 4 -2 14 -12 24 -18 16 -18 16 -6
-6z"/>
<path d="M7590 8505 c-24 -25 -42 -45 -39 -45 3 0 25 20 49 45 24 25 42 45 39
45 -3 0 -25 -20 -49 -45z"/>
<path d="M7500 8479 c0 -5 5 -7 10 -4 6 3 10 8 10 11 0 2 -4 4 -10 4 -5 0 -10
-5 -10 -11z"/>
<path d="M7519 8423 c-13 -16 -12 -17 4 -4 9 7 17 15 17 17 0 8 -8 3 -21 -13z"/>
<path d="M7664 8358 l-19 -23 23 19 c21 18 27 26 19 26 -2 0 -12 -10 -23 -22z"/>
<path d="M7825 8330 c-15 -16 -33 -26 -39 -23 -6 3 -8 3 -4 -2 6 -6 -58 -94
-83 -115 -10 -9 -31 -51 -26 -56 2 -2 19 19 37 47 18 29 60 80 93 115 32 35
57 64 55 64 -2 0 -17 -13 -33 -30z"/>
<path d="M7629 8313 c-13 -16 -12 -17 4 -4 9 7 17 15 17 17 0 8 -8 3 -21 -13z"/>
<path d="M7604 8278 c-4 -7 -14 -24 -22 -38 -14 -24 -13 -24 3 -5 20 24 37 55
31 55 -3 0 -8 -6 -12 -12z"/>
<path d="M7657 8248 c4 -21 3 -22 -10 -6 -10 13 -16 15 -25 6 -17 -17 -15 -28
6 -28 15 -1 15 -2 -3 -17 -15 -12 -16 -14 -3 -10 9 3 19 1 22 -6 2 -7 5 -4 5
6 1 9 7 17 14 17 7 0 21 6 32 13 14 11 15 16 5 22 -9 5 -11 4 -6 -3 4 -7 1
-12 -8 -12 -9 0 -16 6 -16 14 0 8 -4 17 -9 20 -5 4 -7 -4 -4 -16z"/>
<path d="M5469 7988 c-3 -23 -1 -38 6 -38 5 0 3 -4 -5 -10 -8 -5 -17 -6 -20
-2 -13 17 -29 9 -34 -16 -14 -77 -17 -122 -7 -122 6 0 11 -9 11 -21 0 -11 -4
-18 -10 -14 -12 8 -30 -57 -19 -71 5 -6 6 -13 3 -16 -8 -8 17 -88 28 -88 4 0
8 7 8 15 0 8 5 15 11 15 5 0 7 5 4 10 -3 6 1 18 10 27 9 9 14 24 12 35 -3 10
-1 16 4 12 7 -4 15 108 10 139 -1 5 4 5 10 1 12 -7 6 70 -10 146 l-8 35 -4
-37z"/>
<path d="M5670 7966 c0 -2 8 -10 18 -17 15 -13 16 -12 3 4 -13 16 -21 21 -21
13z"/>
<path d="M7181 7924 c0 -11 3 -14 6 -6 3 7 2 16 -1 19 -3 4 -6 -2 -5 -13z"/>
<path d="M7452 7840 c0 -14 2 -19 5 -12 2 6 2 18 0 25 -3 6 -5 1 -5 -13z"/>
<path d="M5502 7810 c0 -14 2 -19 5 -12 2 6 2 18 0 25 -3 6 -5 1 -5 -13z"/>
<path d="M7456 7740 c5 -77 28 -184 46 -210 7 -12 8 -11 5 6 -2 12 2 32 9 45
18 32 17 39 -3 33 -17 -5 -17 -5 0 9 29 24 19 57 -21 63 -20 3 -22 6 -32 70
-9 59 -9 59 -4 -16z"/>
<path d="M7182 7740 c0 -14 2 -19 5 -12 2 6 2 18 0 25 -3 6 -5 1 -5 -13z"/>
<path d="M5372 7660 c0 -14 2 -19 5 -12 2 6 2 18 0 25 -3 6 -5 1 -5 -13z"/>
<path d="M7312 7655 c0 -16 2 -22 5 -12 2 9 2 23 0 30 -3 6 -5 -1 -5 -18z"/>
<path d="M5381 7614 c1 -10 5 -30 10 -44 7 -21 8 -18 5 13 -4 39 -17 66 -15
31z"/>
<path d="M7321 7604 c0 -11 3 -14 6 -6 3 7 2 16 -1 19 -3 4 -6 -2 -5 -13z"/>
<path d="M7331 7570 c0 -8 4 -22 9 -30 12 -18 12 -2 0 25 -6 13 -9 15 -9 5z"/>
<path d="M5401 7524 c0 -11 3 -14 6 -6 3 7 2 16 -1 19 -3 4 -6 -2 -5 -13z"/>
<path d="M7689 7455 c16 -30 40 -59 45 -54 2 2 -10 20 -26 39 -17 19 -25 26
-19 15z"/>
<path d="M7599 7355 c5 -11 20 -29 33 -40 l23 -20 -18 21 c-9 11 -15 24 -12
27 3 4 2 5 -2 2 -3 -3 -12 3 -20 13 -13 16 -13 15 -4 -3z"/>
<path d="M7545 7190 c27 -27 51 -50 54 -50 3 0 -17 23 -44 50 -27 28 -51 50
-54 50 -3 0 17 -22 44 -50z"/>
<path d="M8008 7233 c7 -3 16 -2 19 1 4 3 -2 6 -13 5 -11 0 -14 -3 -6 -6z"/>
<path d="M8059 7221 c8 -5 21 -7 29 -4 8 3 18 0 23 -8 7 -11 9 -11 9 4 0 13
-8 17 -37 17 -26 0 -34 -3 -24 -9z"/>
<path d="M8183 7223 c9 -2 23 -2 30 0 6 3 -1 5 -18 5 -16 0 -22 -2 -12 -5z"/>
<path d="M8027 7199 c4 -13 8 -18 11 -10 2 7 -1 18 -6 23 -8 8 -9 4 -5 -13z"/>
<path d="M7360 7206 c0 -2 8 -10 18 -17 15 -13 16 -12 3 4 -13 16 -21 21 -21
13z"/>
<path d="M7950 7171 c0 -5 7 -12 16 -15 14 -5 15 -4 4 9 -14 17 -20 19 -20 6z"/>
<path d="M8060 7149 c0 -5 5 -7 10 -4 6 3 10 8 10 11 0 2 -4 4 -10 4 -5 0 -10
-5 -10 -11z"/>
<path d="M7895 7135 c17 -7 43 -15 59 -19 26 -6 27 -5 13 8 -9 9 -23 13 -31
10 -9 -3 -16 -2 -16 4 0 5 -12 9 -27 9 l-28 0 30 -12z"/>
<path d="M8148 7093 c7 -3 16 -2 19 1 4 3 -2 6 -13 5 -11 0 -14 -3 -6 -6z"/>
<path d="M8249 6953 c-1 -5 -1 -11 0 -15 2 -12 -17 -10 -24 2 -3 6 -13 10 -21
10 -10 0 -12 -5 -8 -12 5 -8 1 -8 -10 1 -11 10 -20 11 -24 5 -10 -15 -42 -25
-42 -13 0 6 -4 8 -9 4 -6 -3 -1 -21 11 -41 17 -29 25 -34 44 -30 14 4 24 2 24
-4 0 -5 5 -10 11 -10 5 0 8 4 4 9 -3 5 -1 12 5 16 5 3 10 0 10 -7 0 -8 3 -9 8
-3 11 16 33 17 49 3 14 -11 15 -10 9 10 -10 29 10 29 41 0 17 -16 22 -18 18
-6 -4 9 -13 19 -21 22 -8 3 -11 12 -8 21 5 11 0 18 -15 22 -11 3 -18 9 -15 14
3 5 -4 9 -15 9 -12 0 -22 -3 -22 -7z m40 -42 c-13 -11 -26 -17 -29 -14 -6 6
30 33 43 33 5 0 -1 -9 -14 -19z m-119 -11 c-11 -7 -11 -10 -2 -10 7 0 10 -4 7
-10 -4 -6 -11 -5 -19 3 -14 12 -4 27 19 27 6 0 3 -5 -5 -10z"/>
<path d="M7707 6909 c7 -7 15 -10 18 -7 3 3 -2 9 -12 12 -14 6 -15 5 -6 -5z"/>
<path d="M8103 6880 c-1 -11 2 -22 8 -25 5 -4 9 3 9 14 0 26 -15 35 -17 11z"/>
<path d="M5790 6864 c0 -7 7 -27 15 -45 8 -19 14 -29 15 -23 0 7 -7 27 -15 45
-8 19 -14 29 -15 23z"/>
<path d="M8408 6853 c7 -3 16 -2 19 1 4 3 -2 6 -13 5 -11 0 -14 -3 -6 -6z"/>
<path d="M8330 6840 c-13 -8 -12 -10 3 -10 9 0 17 5 17 10 0 12 -1 12 -20 0z"/>
<path d="M8368 6843 c7 -3 16 -2 19 1 4 3 -2 6 -13 5 -11 0 -14 -3 -6 -6z"/>
<path d="M8265 6829 c-22 -4 -82 -8 -133 -7 -51 0 -96 -3 -100 -7 -12 -13 258
1 270 13 7 7 10 11 8 11 -3 -1 -23 -5 -45 -10z"/>
<path d="M7968 6823 c12 -2 30 -2 40 0 9 3 -1 5 -23 4 -22 0 -30 -2 -17 -4z"/>
<path d="M7525 6765 c11 -9 29 -21 40 -26 l20 -10 -20 16 c-11 9 -29 21 -40
26 l-20 10 20 -16z"/>
<path d="M5761 6725 c0 -5 4 -17 9 -25 7 -11 10 -11 10 -2 0 7 5 10 12 6 7 -4
8 -3 4 5 -4 6 -11 9 -16 6 -4 -3 -11 1 -13 7 -3 7 -6 9 -6 3z"/>
<path d="M5730 6655 c-7 -9 -8 -15 -2 -15 5 0 12 7 16 15 3 8 4 15 2 15 -2 0
-9 -7 -16 -15z"/>
<path d="M5761 6654 c0 -11 3 -14 6 -6 3 7 2 16 -1 19 -3 4 -6 -2 -5 -13z"/>
<path d="M5706 6630 c7 -28 12 -35 18 -29 2 2 -2 15 -10 29 l-15 25 7 -25z"/>
<path d="M5775 6620 c-3 -5 -1 -10 4 -10 6 0 11 5 11 10 0 6 -2 10 -4 10 -3 0
-8 -4 -11 -10z"/>
<path d="M5741 6594 c0 -11 3 -14 6 -6 3 7 2 16 -1 19 -3 4 -6 -2 -5 -13z"/>
<path d="M5723 6580 c10 -39 39 -120 43 -120 3 0 2 10 -1 21 -4 12 -8 27 -9
33 -2 6 -10 27 -19 46 -10 19 -16 28 -14 20z"/>
<path d="M5852 6040 c0 -14 2 -19 5 -12 2 6 2 18 0 25 -3 6 -5 1 -5 -13z"/>
<path d="M6739 5779 c-13 -4 -46 -11 -74 -14 l-50 -8 50 -17 c80 -28 102 -33
85 -21 -13 10 -13 11 0 12 8 1 27 0 41 -1 20 -1 27 3 25 17 -1 17 3 19 40 22
8 0 12 5 9 11 -7 11 -89 10 -126 -1z"/>
</g>
</svg>
